<svg version="1.1" id="Layer_1" xmlns="http://www.w3.org/2000/svg" xmlns:xlink="http://www.w3.org/1999/xlink" x="0px" y="0px"
	 viewBox="0 0 1260 1580" enable-background="new 0 0 1260 1580" xml:space="preserve">
	 <title>Rocky, the Bear</title>
<path fill="#EBF0F5" d="M951.8,778.6L951.8,778.6c-8.3,9.8-18.5,17.6-29.9,22.9c-8.5,3.9-17.5,6.5-26.9,7.6
	c31.5,84.1,50.1,166.7,50.1,223.2c0,55.6-18.1,107.6-48.7,152.2c-59.9,87.1-168,145.4-283.1,145.4c-115.3,0-223.6-58.5-283.4-145.8
	c-30.5-44.4-48.4-96.3-48.4-151.7c0-55.9,18.3-137.5,49.2-220.8c-9.8-1-19.3-3.6-28.1-7.7c-11.4-5.3-21.6-13.1-29.9-22.9
	c48.9-76,109.7-143.7,180-200.6l9.5-7.7c46.2-54.9,97.9-91,151.1-91c52.6,0,103.7,35.3,149.5,89.1l9.1,7.3
	C842.1,634.8,902.9,702.5,951.8,778.6z"/>
<path fill="#180F33" stroke="#0C0A13" stroke-width="9.3647" stroke-miterlimit="10" d="M428.7,1215.1c0,0,137.8-97.1,403.7-21.6
	l-242.2,105.8C590.2,1299.3,444.5,1221.6,428.7,1215.1z"/>
<path fill="#1E1853" stroke="#0C0A13" stroke-width="9.3647" stroke-miterlimit="10" d="M603.2,1279.4l322-123.5
	c0,0,36.5-20.3,85.1-4.1c0,0,83,14.2,103.3,93.2c0,0,40.5,101.3-54.7,143.8c0,0-166.1,68.9-275.4,64.8c0,0-14.2-66.8-52.7-56.7
	c-38.5,10.1-46.6,22.3-46.6,14.2s10.1-56.7,10.1-56.7S666,1323.8,603.2,1279.4z"/>
<path fill="#1E1853" stroke="#0C0A13" stroke-width="9.3647" stroke-miterlimit="10" d="M692.3,1348.3c0,0-220.7-174.2-421.2-192.4
	c0,0-60.8-2-72.9,10.1c-12.2,12.2-60.8,66.8-60.8,93.2c0,0-22.3,64.8,20.3,93.2c0,0,153.9,121.5,324,141.8
	c170.1,20.3,162,42.5,162,42.5s30.4-113.4,36.5-117.5C686.2,1415.1,700.4,1356.4,692.3,1348.3z"/>
<path fill="#050505" d="M643.7,1536.6c0,0-26.3-62.8,2-123.5c28.4-60.8,30.4-74.9,44.6-62.8c14.2,12.2,4,38.5,4,38.5l-28.4,79
	L643.7,1536.6z"/>
<path opacity="0.38" fill="#121112" d="M613.7,1280.9c0,0,154.5,104,195,110.1c40.5,6.1,244.8-3.6,287.6-30.4
	c0,0-31.8,34.8-139.7,68.9c-37.3,11.8-153.9,28.4-153.9,28.4s-16.2,10.1-18.2,0c-2-10.1-10.1-50.6-30.4-54.7
	c-20.3-4.1-68.8,12.1-68.8,12.1l11.9-68.9l-28.8-21.1L613.7,1280.9z"/>
<path opacity="0.16" fill="#1B1C1C" d="M145.8,1343.9c0,0,182.3,93.2,224.8,105.3c35.1,10,245.1,36.5,301.8-93.2l-24.3,139.7
	l-8.1,40.5c0,0-34.4-26.3-46.6-26.3c-12.2,0-115.4-16.2-115.4-16.2l-77-18.2l-68.9-24.3l-87.1-40.5L145.8,1343.9z"/>
<path opacity="2.000000e-02" fill="#F4F5F5" d="M156.9,1358.4c0,0,80.7,47.3,84.7-19.7c3.9-67-32.2-82-33.5-92.6
	c-3.9-31.5,19.7-35.4,43.3-27.6c23.6,7.9,161.5,37.4,196.9,43.3c35.4,5.9,3.9-11.8-7.9-19.7c-11.8-7.9-68.9-49.2-68.9-49.2
	s-104.1-63-175.3-15.8c0,0-53.2,74.8-53.2,80.7S125.4,1336.8,156.9,1358.4z"/>
<path fill-rule="evenodd" clip-rule="evenodd" fill="#444444" stroke="#333333" stroke-width="5" stroke-miterlimit="10" d="
	M706.5,1514.9l-71.4-9.9c0,0-6.6-48.8-0.5-54.9c6.1-6.1,58.8,4,58.8,4S717.6,1506.8,706.5,1514.9z"/>
<path d="M616.2,1271.2c0,0-40.5-27.5-56.4-35.5c-12.4-6.2-22.8,5.1-22.8,5.1l61.1,38.9L616.2,1271.2z"/>
<path fill-rule="evenodd" clip-rule="evenodd" d="M857.3,1453c0,0-39.4-24.7-60.5-31.4c-9.9-3.2-17.2-6.3-22.2-8.8
	c-1.9-1.9-4.8-3.3-8.2-4.7c1.9-2.6,3.8-5.2,5.8-7.8l-26-19c-8.2-6.5-16.4-12.9-24.3-17.8l-4.1-3c0,0-29-19.3-41.1,7.8
	c0,0-7.3,5.4-16,15.4c-4.8,4.8-9.3,10.9-13.6,18.1c-0.3,0.4-0.5,0.9-0.8,1.4c-6.9,11.4-12.8,25.3-15,41.2
	c7.3,7.1,18.1,11.4,29.3,16.6c23,14.6,50.5,36.2,46,53.9c0,0-3.8,12.4,11,14.9c14.7,2.5,69.3-4.6,77.9-3.6c8.2,0.9,45,7.8,79.8,25
	c1.7,0.9,3.4,1.7,5.2,2.6c0,0,11.7,7.7,25,13.3c8.6,4.1,16.8,6.9,22.5,5.6c7.8-0.1,13.6-3.9,14.2-14.3
	C942,1558.4,967.1,1524.8,857.3,1453z"/>
<path opacity="6.000000e-02" fill-rule="evenodd" clip-rule="evenodd" fill="#F4F5F5" d="M919.4,1567.2c0,0,24.9,2.6,10.8-29.3
	c0,0-47.2-84.8-159.5-106.5c0,0-23-10.8-26.2-15.9c-3.2-5.1-42.7-41.5-56.8-40.2c0,0-2.6,4.5,12.8,10.8
	c15.3,6.4,49.8,40.2,53.6,42.7c3.8,2.6,52.3,20.4,63.8,25.5c11.5,5.1,70.8,39.5,77.8,50.4C902.8,1515.5,951.9,1551.9,919.4,1567.2z"
	/>
<path opacity="6.000000e-02" fill-rule="evenodd" clip-rule="evenodd" fill="#F4F5F5" d="M681.4,1384.7c0,0-38.9,35.7-32.5,49.1
	c6.4,13.4,17.2,24.9,25.5,11.5c8.3-13.4,5.1-28.1,17.2-38.3C703.8,1396.8,691.7,1383.5,681.4,1384.7z"/>
<path fill="#1E1853" stroke="#0C0A13" stroke-width="9.3647" stroke-miterlimit="10" d="M542.5,503.6c0,0-0.9,661.6,3.8,736.5
	c4.7,74.9-240.4-106.9-299.5-83c-60.5,24.5,21.7-152.3,21.7-180.4c0-28.1-9.4-154.5-9.4-154.5s4.7-163.9,65.6-215.4
	c41.6-35.2,121.6-85.8,172.5-103.8c9-3.2,11-40.1,16.4-35.9C525.4,476.3,539.7,497.2,542.5,503.6z"/>
<path fill="#1E1853" stroke="#0C0A13" stroke-width="9.3647" stroke-miterlimit="10" d="M707.8,494.8c0,0-10.4,636.6-15.1,711.6
	c-4.7,74.9,271.1-91.1,322.6-53.6c51.5,37.5-35.9-166.3-35.9-194.4c0-28.1,9.4-154.5,9.4-154.5s-4.7-163.9-65.6-215.4
	c-40-33.8-114.2-77.7-164.5-94.6c-5.8-1.9-26.6-31.3-29.8-27.2C717.9,481.1,711.6,486,707.8,494.8z"/>
<path opacity="0.21" fill="#121112" d="M386.6,1095.9c0,0,55.1-73.5,149.6-86.6l5.3-34.1C541.5,975.1,423.4,1001.4,386.6,1095.9z"/>
<path opacity="0.21" fill="#121112" d="M703.1,1006.7c0,0,120.8,18.4,162.8,105c0,0-54.3-110.2-162-141.7L703.1,1006.7z"/>
<path fill="#1E1853" stroke="#0C0A13" stroke-width="9.3647" stroke-miterlimit="10" d="M341.8,596.1c0,0-80.6,58.9-121,215.6
	c0,0-21.7,97.7-24.8,107c-3.1,9.3-96.7,97.7-95.2,226.4c0,0,67.4,13.6,120.1,30.7c0,0,63.5-58.6,103.8-164c0,0,35.6-132,43.3-149
	c7.8-17.1,8.8-121.3,19.7-126"/>
<path fill="#1E1853" stroke="#0C0A13" stroke-width="9.3647" stroke-miterlimit="10" d="M925.8,592.2c0,0,80.6,58.9,121,215.5
	c0,0,21.7,97.7,24.8,107c3.1,9.3,88.8,101,87.2,229.7c0,0-60.8,8.3-113.6,25.4c0,0-62-56.6-102.3-162c0,0-35.6-132-43.3-149
	c-7.8-17.1-8.8-121.3-19.7-126"/>
<g>
	<path fill="#A55A28" d="M58.8,1297.1c-8.4,0-12.1-4.7-12.2-4.7l-0.1-0.2l-0.2-0.2c-2.6-2.6-3.7-5.2-3.3-7.8
		c0.9-5.9,9.4-11.4,12.5-13l8.7-4.4l-9.5-2.1c-35.9-8-34.9-23.8-34.5-26c3.4-8,6.2-10.9,10.4-10.9c4,0,9.7,2.5,17,7.4
		c5.9,3.9,11.2,5.9,15.7,5.9c0,0,0,0,0,0c9.5,0,13.6-8.3,14.4-12.7c0.8-4.3-0.5-8.6-3.5-12.3c-4.1-4.9-10.6-7.7-17.6-7.7
		c-5.6,0-11.2,1.9-16.1,5.5c-7.3,5.3-13,6.4-16.5,6.4c-2.9,0-4.7-0.7-5.1-0.9c-2.8-1.9-4.3-4-4.7-6.4c-0.6-4.3,2.8-8.5,2.8-8.5
		l0.5-0.5l0.2-0.7c5.5-17.5,39.7-29,58.1-35.2c4.1-1.4,7.7-2.6,10.4-3.6c10.7-4.2,14.6-9.8,16-13.8c26.3,7,68,17.2,81.2,20.4
		c-25.8,53.6-94.7,112.6-97.7,115.1C75.4,1293.4,66.5,1297.1,58.8,1297.1C58.8,1297.1,58.8,1297.1,58.8,1297.1z"/>
	<g>
		<path fill="#531C0A" d="M104.1,1154.7c23.9,6.3,58.3,14.8,74.1,18.6c-26.6,51.4-90.8,106.7-94.8,110c-9.3,6.7-17.8,10.3-24.6,10.3
			c-6,0-8.9-2.8-9.4-3.4l-0.1-0.2l-0.5-0.5c-2.7-2.7-2.4-4.2-2.3-4.8c0.6-3.7,6.7-8.4,10.6-10.4l17.5-8.8l-19.1-4.3
			c-18.5-4.1-26.2-10.3-29.4-14.7c-2.3-3.3-2.5-6-2.5-7c3.3-7.6,5.2-8.3,7-8.3c2.2,0,6.7,1.2,15.1,6.8c6.5,4.4,12.3,6.5,17.7,6.5
			c11.8,0,16.8-10.1,17.8-15.5l0,0l0,0c0.9-5.3-0.6-10.6-4.3-15.1c-4.7-5.6-12.3-9-20.3-9c-6.4,0-12.7,2.1-18.2,6.1
			c-6.5,4.7-11.5,5.7-14.5,5.7c-1.8,0-3-0.4-3.4-0.5c-1.7-1.2-2.7-2.5-2.9-3.8c-0.3-2.2,1.4-5,2-5.8l0.9-1l0.5-1.4
			c4.9-15.7,38.1-26.9,55.9-32.9c4.2-1.4,7.8-2.6,10.6-3.7C96.9,1163.9,101.7,1159,104.1,1154.7 M99.3,1146.2c0,0,1,8.8-14.5,14.8
			c-15.5,6.1-63.4,18-70.6,41.1c0,0-10,11.7,2.7,20.2c0,0,2.5,1.4,6.9,1.4c4.4,0,10.8-1.4,18.6-7.1c4.7-3.4,9.5-4.8,14.1-4.8
			c10.6,0,19.2,7.7,17.7,15.9c0,0-1.8,9.8-10.9,9.8c-3.5,0-7.9-1.4-13.8-5.3c-8.4-5.6-14.4-7.9-18.9-7.9c-7,0-10.5,5.5-13.8,13.4
			c0,0-5.1,21,37.1,30.5c0,0-24.2,12.2-10.1,26.4c0,0,4.6,6.1,15,6.1c6.9,0,16.4-2.7,28.9-11.8c0,0,75.2-63.4,100.5-120.3
			C188.2,1168.5,130.4,1154.6,99.3,1146.2L99.3,1146.2z"/>
	</g>
</g>
<g>
	<path fill="#A55A28" d="M1198.8,1294.3c-7.7,0-16.7-3.7-26.8-11.1c-0.8-0.6-78.5-58.8-105.1-113.1c14.7-3,62.9-12.9,90.2-19.9
		c0,0.1,0.1,0.2,0.1,0.2c1.8,4.3,6.6,8,14.4,11c2.7,1.1,6.3,2.3,10.4,3.6c18.4,6.2,52.7,17.7,58.1,35.2l0.2,0.7l0.5,0.5
		c0,0,3.5,4.2,2.8,8.5c-0.3,2.4-1.9,4.5-4.7,6.4c-0.3,0.2-2.2,0.9-5.1,0.9c-3.5,0-9.2-1.1-16.5-6.4c-4.9-3.6-10.5-5.5-16.1-5.5
		c-7,0-13.6,2.9-17.6,7.7c-3,3.6-4.3,8-3.5,12.2c0.8,4.4,4.9,12.7,14.4,12.7c4.6,0,9.9-2,15.7-5.9c7.3-4.9,13-7.4,17-7.4
		c4.2,0,7,2.9,10.4,10.9c0.3,2.1,1.5,18-34.5,26l-9.6,2.1l8.7,4.4c3.2,1.6,11.6,7.1,12.5,13c0.4,2.6-0.7,5.1-3.3,7.8l-0.2,0.2
		l-0.1,0.2C1210.9,1289.7,1207.2,1294.3,1198.8,1294.3z"/>
	<g>
		<path fill="#531C0A" d="M1155.2,1154.3c2.7,4.1,7.6,7.6,15,10.5c2.8,1.1,6.4,2.3,10.6,3.7c17.8,6,51,17.2,55.9,32.9l0.4,1.3l1,1.1
			c0.7,0.8,2.4,3.5,2,5.8c-0.2,1.3-1.2,2.5-2.9,3.8c-0.5,0.2-1.6,0.5-3.4,0.5c-3,0-7.9-1-14.5-5.7c-5.5-4-11.8-6.1-18.2-6.1
			c-8,0-15.6,3.4-20.3,9c-3.7,4.4-5.2,9.8-4.3,15.1l0,0l0,0c1,5.4,6,15.5,17.8,15.5c5.4,0,11.1-2.1,17.7-6.5
			c8.4-5.6,12.8-6.8,15.1-6.8c1.8,0,3.7,0.6,7,8.3c0,1-0.1,3.7-2.5,7c-3.2,4.4-10.9,10.6-29.4,14.7l-18.9,4.2l17.3,8.8
			c3.9,2,10.1,6.7,10.6,10.5c0.1,0.5,0.3,2.1-2.3,4.7l-0.3,0.2l-0.3,0.5c-0.5,0.5-3.4,3.4-9.4,3.4c-6.8,0-15.4-3.6-24.7-10.4
			c-1.7-1.3-74.2-55.8-102-107.7C1089.8,1169,1129.8,1160.7,1155.2,1154.3 M1160.1,1145.8c-31,8.4-98.3,21.8-98.3,21.8
			c25.3,56.9,108.1,118.4,108.1,118.4c12.5,9.1,22,11.8,28.9,11.8c10.4,0,15-6.1,15-6.1c14.2-14.2-10.1-26.4-10.1-26.4
			c42.3-9.4,37.1-30.5,37.1-30.5c-3.3-7.9-6.8-13.4-13.8-13.4c-4.5,0-10.6,2.4-18.9,7.9c-5.8,3.9-10.3,5.3-13.8,5.3
			c-9.1,0-10.9-9.8-10.9-9.8c-1.5-8.1,7.1-15.9,17.7-15.9c4.5,0,9.4,1.4,14.1,4.8c7.8,5.7,14.2,7.1,18.6,7.1c4.4,0,6.9-1.4,6.9-1.4
			c12.7-8.5,2.7-20.2,2.7-20.2c-7.2-23-55.1-35-70.6-41.1C1157.3,1152.1,1160.1,1145.8,1160.1,1145.8L1160.1,1145.8z"/>
	</g>
</g>
<path opacity="0.38" fill="#121112" d="M391.7,699.8c0,0,24.9,169.1-1.4,216.4c-26.3,47.3-63,178.5-63,212.7
	c0,34.1,113.5,96,145.7,108.7l-124.7-56.2c0,0-82-29.1-101.4-23.8c0,0,58.3-94.8,67.3-114c9.6-20.5,34.6-91.5,39.4-124.8
	c2.1-14.7,21.5-63.4,21.5-63.4L391.7,699.8z"/>
<path opacity="0.38" fill="#121112" d="M194.1,926.5c2.3,0,81.4-3.8,97.3,38.8c0,0-3-31.9-76.8-46.4c0,0,32.7-11.4,65.4,3.8
	c0,0-46.4-19-80.6-12.2L194.1,926.5z"/>
<path opacity="0.38" fill="#121112" d="M1083.2,935.5c0,0-1.1-0.1-3-0.3c-15.6-1.5-87.4-6.4-111.5,24.5c0,0,31.9-33.7,72.6-35.4
	c0,0-17.1-10-51.4-3.5c0,0,59.1-14.2,77.9-6.5C1086.7,921.9,1083.2,935.5,1083.2,935.5z"/>
<path opacity="0.38" fill="#121112" d="M828,727.8c0,0,21.7,75.1,55.2,122.4l80.7,263.6c0,0,6.9,32.1-23.6,37.4
	c0,0,64.3-19.7,82.2,0.9l-23.4-29c0,0-49.5-73.9-60-115.1c-10.7-41.8-41.6-143.2-41.6-143.2l-9.4-45.7
	C888,819.1,865.9,815.7,828,727.8z"/>
<path opacity="0.38" fill="#121112" d="M320.7,614c0,0,53.2,9.8,59.1,61C379.8,675.1,383.7,616,320.7,614z"/>
<path opacity="0.38" fill="#121112" d="M935.1,600.3c0,0-57.1,11.8-61,80.7C874.1,681,862.2,604.2,935.1,600.3z"/>
<path opacity="2.000000e-02" fill="#F4F5F5" d="M97.5,1148.6c0,0,11.3-120.4,96.6-222.1c0,0,69.5-3.2,79.4,32.2
	c9.8,35.4-45.3,37.4-59.1,45.3c-13.8,7.9-35.4,11.8-49.2,43.3C151.3,1078.8,104.7,1153.4,97.5,1148.6z"/>
<path opacity="2.000000e-02" fill="#F4F5F5" d="M208.5,907.5c0,0,23.6-189.1,112.2-293.4c0,0,59.1,19.7,55.1,51.2
	c0,0-36.6-36.7-47.3-17.7C285.3,724.3,247.8,742,208.5,907.5z"/>
<path opacity="2.000000e-02" fill="#F4F5F5" d="M1011.9,1177.3c0,0,110.3,39.4,80.7,147.7c0,0-41.5,64.5-74.8,29.5
	c-14.3-15-21.9-7.2,1.1-67.2c3.1-8.2,16.6-27.3-3.1-41.1C996.2,1232.4,972.5,1195,1011.9,1177.3z"/>
<path opacity="2.000000e-02" fill="#F4F5F5" d="M874.1,681c0,0,2-65,61-80.7c0,0,102,86.5,132.7,314c0,0-55.9-225.4-128.8-278.6
	C939.1,635.7,927.2,606.2,874.1,681z"/>
<path opacity="2.000000e-02" fill="#F4F5F5" d="M968.6,959.7c0,0,43.9-30.3,111.5-24.5c0,0,91.3,133.7,71.6,198.7
	c0,0-90.6,17.7-104.4,29.5c0,0,33.5-37.4,68.9-49.2c0,0-5.9-102.4-55.1-141.8C1061.2,972.4,1061.2,949,968.6,959.7z"/>
<path opacity="2.000000e-02" fill="#F4F5F5" d="M700.8,1165.4l7.9-153.6c0,0,102.4,11.8,116.2,84.7
	C824.8,1096.5,838.6,1145.7,700.8,1165.4z"/>
<path opacity="2.000000e-02" fill="#F4F5F5" d="M539.9,1008c0,0-103.1,17.6-132.6,88.5c0,0-21.7,45.3,133.9,70.9L539.9,1008z"/>
<path opacity="2.000000e-02" fill="#F4F5F5" d="M344.3,606.2l108.3-70.9l2,17.7c0,0-7.9,27.6-15.8,31.5
	c-7.9,3.9-72.9,39.4-72.9,39.4S350.2,602.2,344.3,606.2z"/>
<path opacity="2.000000e-02" fill="#F4F5F5" d="M789.4,515.6c0,0,122.1,59.1,124.1,80.7c0,0-21.7,19.7-31.5,31.5
	c-9.8,11.8-88.6-59.1-88.6-59.1l10.9-26.4L789.4,515.6z"/>
<path fill="#131023" d="M393.6,895.6c0,0,49.2-29.5,102.4-3.9C496,891.7,434.9,846.4,393.6,895.6z"/>
<path fill="#121112" d="M142,1253.4c0,0,62-40,57.5-80.1c0,0-7.1-2.6-8.4,0C189.8,1175.9,140.7,1243.7,142,1253.4z"/>
<path fill="#121112" d="M1062.9,1174.6c0,0,42,55.5,50.4,67.8c8.4,12.3,3.9,20.7,3.9,20.7l-62.6-74.9
	C1054.5,1188.2,1033.8,1158.5,1062.9,1174.6z"/>
<g>
	<g opacity="0.34">
		<path fill="#131023" d="M721.7,507.8l11.9-46.1l68,74.6l-53.2,61l44.7,26.2l-90.9,314.2l-3,10.4c0.8-96.1,14.5-293.4,15-375
			C714.2,573.2,719.2,538.5,721.7,507.8z"/>
	</g>
	<g>
		<path fill="#1C0C3A" d="M704.8,894.1c1.3-84.5,1.8-180.9,1.8-182.1l1-133.6l1.1-0.1l0.1-83.9l20.8-30.4l57.4,66.9l-41.7,50.4
			L716.2,569l-4.2,8.4l69.6,39.7C774.2,644,725.9,818.1,704.8,894.1z"/>
		<g>
			<path fill="#050505" d="M730,471.7l50.9,59.3l-37,44.7l-25.9-11l-3.8,7.7l-0.7-8.5l-0.2,0l0.1-68L730,471.7 M712.2,582.8l24,13.7
				l3.5,2l1.6,0.9l34.8,19.8c-8.6,31-43.7,157.4-66.2,238.6c0.9-73.7,1.3-144.9,1.3-145.8L712.2,582.8 M729.2,456.4L704.1,493
				l-0.1,81l10.3-0.7l-10.3,0.9l0-0.2l-2.1,0.2l1.1,1.5L701.9,712c0,0-0.6,127.3-2.4,218.7c0.5-1.6,87.7-315.9,87.7-315.9L746,591.3
				l-1.6-0.9l-3.5-2l-26.5-15.1l32.3,13.7l46.5-56.2L729.2,456.4L729.2,456.4z"/>
		</g>
	</g>
</g>
<g>
	<g opacity="0.34">
		<path fill="#131023" d="M518.8,513.3l-11.9-45.6l-53.3,77.3L492,602l-44.7,25.9l90.9,311.2l3,10.3c-0.8-95.1-14.5-290.6-15-371.4
			C526.3,578,521.3,543.6,518.8,513.3z"/>
	</g>
	<g>
		<path fill="#1C0D3A" d="M459.9,621.9l68.9-38.9c2.6-1.4,3.5-4.6,2.3-7.3c-1-2-2.9-3.1-5-3.1c-0.7,0-1.4,0.1-2.2,0.4l-28.2,11.9
			L465,542.6l46.6-70.6l26.3,35.6l-0.2,60c-0.2,0.6-0.4,1.2-0.4,1.9c0,0-4.3,146-4.3,146c0,1.1,0.5,91.6,1.7,173.6
			C513,811.6,467.8,650,459.9,621.9z"/>
		<path fill="#131023" d="M511.9,481.6l20.5,27.8l-0.2,53.1l-10.7,5.5l-23.9,10.1l-25.9-35.6L511.9,481.6 M531.3,587.9l-3.7,127.2
			c0,0.1,0,0.3,0,0.4c0,0.9,0.3,63.2,1.1,131.3c-22.1-79-53.5-190.9-62.3-222.2l33.6-19l1.6-0.9l3.5-2l26.1-14.7
			C531.2,588,531.2,588,531.3,587.9L531.3,587.9 M511.3,462.3l-53.1,80.4l35.5,49l32.3-13.6l-26.5,15l-3.5,2l-1.6,0.9l-41.1,23.2
			c0,0,87.2,311.3,87.7,312.9c-1.8-90.5-2.4-216.6-2.4-216.6l4.3-145.8l-16.7,8.4l16.7-8.6l0,0.2l0.4-0.2l0.2-63.7L511.3,462.3
			L511.3,462.3z"/>
	</g>
</g>
<path fill="#8B421F" d="M102.3,1154.9c0,0,53.7,13.4,49.7,37.6c-4,24.2-53.7,69.8-58.4,73.8c-4.7,4-37.6,28.9-47.7,19.5
	c0,0-5.4,10.1,10.1,9.4c15.4-0.7,33.6-14.1,35.6-15.4c2-1.3,40.9-42.3,40.9-42.3l36.2-45l10.1-19.5
	C178.8,1173,110.3,1152.9,102.3,1154.9z"/>
<path fill="#8B421F" d="M1154.5,1154.3c0,0-63.1,20.6-46.8,36.8c0,0,66.8,90.6,87.4,99.9c0,0-69.3-23.1-123.7-118.7
	c0,0,1.9-5.6,4.4-5S1146.4,1153.7,1154.5,1154.3z"/>
<g>
	<path fill="#1E1E1E" d="M815.5,532.1c1.2-0.4,2.5-0.2,3.7,0.1c1.2,0.3,2.4,0.8,3.5,1.5c0.3,0.2,0.5,0.4,0.8,0.6
		c0.3,0.2,0.5,0.5,0.7,0.7c0.4,0.5,0.7,1,1,1.6c0.3,0.5,0.6,1.1,0.9,1.6l0.4,0.8c0.1,0.1,0.1,0.3,0.2,0.4c0.1,0.1,0.2,0.3,0.3,0.3
		c-0.3,0-0.6-0.3-0.8-0.5c-0.2-0.2-0.4-0.4-0.7-0.7c-0.4-0.5-0.8-0.9-1.2-1.4c-0.4-0.5-0.8-0.9-1.2-1.4c-0.2-0.2-0.4-0.4-0.6-0.6
		c-0.2-0.2-0.4-0.3-0.7-0.5c-0.9-0.6-2-1.2-3.1-1.6C817.8,532.7,816.7,532.3,815.5,532.1z"/>
</g>
<g>
	<path fill="#1E1E1E" d="M819.1,529.1c0.8,0,1.6,0.1,2.3,0.3c0.8,0.2,1.5,0.5,2.2,0.8c0.7,0.4,1.4,0.9,1.9,1.5
		c0.5,0.6,1,1.3,1.2,2.1l-1.9-1.3c-0.6-0.4-1.2-0.8-1.9-1.1C821.8,530.7,820.4,530.1,819.1,529.1z"/>
</g>
<path fill="#131023" d="M700.5,652l0.5-22.2l6.2,1.9l-1.8,16.4C705.4,648.2,711.6,654.8,700.5,652z"/>
<path fill="#131023" d="M547,639.6l3-54.7l-8.4-5.9l-4.1,35.3c0,0-1.4,19.6-1.4,20.6C536.2,635.9,543.1,642.5,547,639.6z"/>
<path fill="#1E1E1E" d="M677.5,603.7"/>
<path fill="#A55A28" stroke="#531C0A" stroke-width="10" stroke-miterlimit="10" d="M423.3,142.7c-20.9-26.8-69-63.3-110.9-58.3
	c-41.8,5-55.8,71.7-15.1,97c40.7,25.4,89.5,35.8,109.5,32.3C426.7,210,423.3,142.7,423.3,142.7z"/>
<path fill="#EA9E52" d="M401.2,165.7c-5.9-15.4-35.1-26.2-50.4-25.7c-15.3,0.5-28.8,25-8,33.3c20.8,8.4,45.6,10.4,53.5,7.4
	C404.2,177.7,401.2,165.7,401.2,165.7z"/>
<path fill="#A55A28" stroke="#531C0A" stroke-width="10" stroke-miterlimit="10" d="M761.3,26.2c-29.9-10.2-75.4,13.5-73.8,58
	c1.6,44.5,50.4,94,65.1,108.6c14.7,14.6,50.9-7.9,63.5-43.2C828.6,114.3,814.7,44.4,761.3,26.2z"/>
<path fill="#EA9E52" d="M764.4,95.7c-21.3-12.1-38.4,2.9-40,27.8c-1.7,24.9,7.1,43.6,7.1,43.6s28.6-3.3,40-27.8
	C782.9,114.8,770.5,99.2,764.4,95.7z"/>
<path fill="#A55A28" stroke="#531C0A" stroke-width="10" stroke-miterlimit="10" d="M352.6,565.3c44.9-110.5,19.7-149.8,17.3-245.8
	c-2.4-96,5-206.3,163.7-241C692.5,43.7,786.2,161.3,870.3,431C954.4,700.7,307.8,675.8,352.6,565.3z"/>
<path fill="#8B421F" d="M461.9,525.1c0,0-94.5-273.4-18.5-403.5c0,0-43,25.6-59.8,90.8c0,0-25.2,69,8.4,285.6l58.1,36.3L461.9,525.1
	z"/>
<path fill="#EA9E52" d="M573.9,192.1c-33.8,6.9-79.5,20.9-78.4,79.5c1.1,58.6,10.7,140.7,75.7,141c61.7,0.2,96.3-72.1,93.6-158.6
	C662.9,193.3,598.4,187.1,573.9,192.1z"/>
<path d="M577.2,223.1c-29.4,4.3-48,13.4-46.3,27.6c1.7,14.2,25.7,51.9,46.5,50.5c20.8-1.4,53.5-31.6,52.9-55.5
	C629.7,221.8,592.8,220.8,577.2,223.1z"/>
<path d="M435.2,182.1c-6.6-9.8-29.6,11.9-29.3,19.5c0.2,7.6,8.8-0.7,19.1-5.8C435.4,190.8,439,187.7,435.2,182.1z"/>
<path d="M678.7,143.5c4.8-9.3,21-3.6,30.8,6.6c9.8,10.1-5.4,9.5-11.5,6.1C691.8,152.6,673.1,154.1,678.7,143.5z"/>
<path d="M682.7,193.9c-0.7,6.2,3.8,11.4,10,11.6c6.2,0.2,11.8-4.6,12.5-10.8c0.7-6.2-3.8-11.4-10-11.6
	C688.9,182.8,683.3,187.7,682.7,193.9z"/>
<path opacity="0.21" fill="#8B421F" d="M386.5,489.5c0,0,58.5,26.3,62.9,24.8c4.4-1.5,24.8-11.7,32.2-11.7s42.4,10.2,48.2,14.6
	c5.8,4.4,71.6,1.5,84.8,4.4c13.2,2.9,58.5-2.9,87.7,40.9c0,0,140.3-52.6,163.7-99.4l8.8-13.2c0,0,5.8,20.5,5.8,24.9
	c0,4.4-16.1,65.8-59.9,81.9c-43.9,16.1-86.2,26.3-119.9,39.5c-33.6,13.2-65.8,23.4-90.6,21.9c-24.9-1.5-86.2-17.5-96.5-19
	c-10.2-1.5-54.1-24.8-67.2-27.8c-13.2-2.9-33.6-14.6-40.9-24.9c-7.3-10.2-24.9-33.6-24.9-33.6L386.5,489.5z"/>
<path fill="#F07F21" d="M688.8,583.6c0,0-8.9-45.9-61.5-42.1c-42.3,3-62.9,44.3-67.2,62.5C555.7,622.3,669.2,602.4,688.8,583.6z"/>
<path d="M443.1,229.4c-0.8,6.8,4.1,12.5,11,12.8c6.8,0.2,13-5.1,13.7-11.8c0.8-6.8-4.2-12.5-11-12.8
	C450,217.3,443.9,222.6,443.1,229.4z"/>
<path fill="#F07F21" stroke="#C45227" stroke-width="7" stroke-miterlimit="10" d="M594.6,923.4c0,0-43.8,12.5-86.8,8.7
	c-43.1-3.8-66.4-18.7-75.8-22.3c-9.4-3.6,26.9-37,16.2-165.2c-10.7-128.3,31.8-100.7,44-112.2c12.1-11.5,116.7,25.5,116.7,25.5
	s13.8,120.3,9.9,165.7C614.8,868.9,597.5,917,594.6,923.4z"/>
<path d="M637.7,327.8c0.1-2.6-4-1.5-4.5,0.4c-2.7,11.5-6.1,23-18.7,29c-15.8,7.6-29.4-7.6-25.9-35c0.1-11.5,0-23.2,0.5-35.1
	c0.1-3.5-7.4-1.5-7.6,1.4c0,0.3,0,0.6,0,0.9c-0.4,0.5,0-0.6,0,0c0.5,7.7-0.6,17.2,0.4,24.9c0.5,4.4-0.1,21.6-1.6,25.9
	c-10.6,29.8-42.9,21.8-53.8-1.7c-1-2.1-4.3-0.1-3.8,1.9c5,21.4,29.7,31.2,48.1,20c5.5-3.4,9.9-9.2,12.9-15.5
	c2.4,12.9,14.7,21.8,28.9,18.4C628,359.7,637.1,343.5,637.7,327.8z"/>
<path fill="#F6921E" stroke="#97271F" stroke-width="7" stroke-miterlimit="10" d="M919.3,520.9c-6.4-30.6-18.7-66.8-45.1-53.7
	c0,0,5.3,11-16.1,27.6c-17.9,13.8-84.4,61.5-170.3,80.7c-6.3-20.4-25.9-33.5-49-35.3c-9.4-2.6-34.8-6.6-99.3-5.2
	c-21.1,0.5-40-21-57.7-18.4c-7.3,1.1-19,7.2-31.3,17.7c-16.7-9.6-29.3-18-36.7-22.4c-25.5-15-51.5-35.7-56.7-38.1
	c-2-0.9-7.8,1.6-13.4,6.6c-8.7,7.8-1.8,31.1-5.9,50c-3.4,15.6-9.7,27.6-7.7,41.9c1.6,11.4,3.5,16.9,6,19.2c4.9,4.5,9,9.8,46,38.3
	c5.5,4.3,12.6,9.7,21,15.7c0.1,62.5,16.9,154.4,11.4,203.5c-6.9,61.5-33.6,84.1-33.6,84.1s37,37.3,76.6,47.5
	c53.9,13.9,93.2,2.4,93.2,2.4s27.8-60.3,27.8-132.3c0-54.1-5.4-95.8-7.8-134.1c29.5,4.5,61.8,5.5,96.6,0.8
	c145.6-19.5,277.3-118.7,281-132.6C951.7,570.9,925.6,551.5,919.3,520.9z M635.2,583c-14.4,0.9-28.4,0.6-41.9-0.7
	c9-14.2,20.5-25.5,34.1-27.8c17.1-2.8,35.6,11.4,43.4,24.3C659.2,580.8,647.3,582.2,635.2,583z"/>
<g>
	<circle opacity="0.28" fill="#FFFFFF" cx="689.9" cy="187.3" r="58.2"/>
	<g>
		
			<radialGradient id="SVGID_1_" cx="3284.0327" cy="211.0514" r="80.8238" gradientTransform="matrix(-1 0 0 1 3985.479 0)" gradientUnits="userSpaceOnUse">
			<stop  offset="0.5744" style="stop-color:#181513"/>
			<stop  offset="0.7977" style="stop-color:#181513"/>
			<stop  offset="1" style="stop-color:#181513"/>
		</radialGradient>
		<path fill="url(#SVGID_1_)" d="M776.8,189c0-7.6-6.1-13.8-13.6-13.8c-2.7,0-8.3,0.2-11.6,0.3c-6-28.6-31.3-50.2-61.6-50.4
			c-35-0.2-63.6,28-63.8,63c-0.2,35,28,63.6,63,63.8c30.2,0.2,55.7-20.9,62.2-49.3c2.3,0,6.4,0,11.1,0.1l0,4.7c-2,0.3-3.5,2-3.5,4.1
			c0,0,0,3,0,3c0,2,1.5,3.7,3.4,4l0,7c-2,0.3-3.5,2-3.5,4.1c0,0,0,3,0,3c0,2,1.5,3.7,3.4,4l0,7.5c-2,0.3-3.5,2-3.5,4.1c0,0,0,3,0,3
			c0,2,1.5,3.7,3.4,4l0,7.1c-2,0.3-3.5,2-3.5,4.1c0,0,0,3,0,3c0,2,1.5,3.7,3.4,4l0,7.4c-3,0.4-5.4,3.8-5.5,8
			c-0.1,4.5,2.6,8.2,5.9,8.3c3.4,0.1,6.1-3.6,6.2-8.1c0.1-4.2-2.3-7.7-5.3-8.2l0-7.4c1.9-0.3,3.4-2,3.5-4c0,0,0-3,0-3
			c0-2-1.5-3.7-3.4-4.1l0-7.1c1.9-0.3,3.4-2,3.5-4c0,0,0-3,0-3c0-2-1.5-3.7-3.4-4.1l0-7.5c1.9-0.3,3.4-2,3.5-4c0,0,0-3,0-3
			c0-2-1.5-3.7-3.4-4.1l0-7c1.9-0.3,3.4-2,3.5-4c0,0,0-3,0-3c0-2-1.5-3.7-3.4-4.1l0-4.7C770.9,202.3,776.7,196.4,776.8,189z
			 M689.1,245.6c-31.5-0.2-56.9-26-56.7-57.5c0.2-31.5,26-56.9,57.5-56.7c31.5,0.2,56.9,26,56.7,57.5
			C746.4,220.3,720.6,245.8,689.1,245.6z M752.9,189.3c0-0.2,0-0.3,0-0.5c0-0.2,0-0.3,0-0.5c0.3-5.4,4.8-9.7,10.2-9.7
			c5.6,0,10.2,4.6,10.1,10.3c0,5.4-4.3,9.8-9.6,10.1l0-0.7c0-0.4-0.3-0.7-0.7-0.7c-0.4,0-0.7,0.3-0.7,0.7l0,0.7
			C757.2,198.8,753.1,194.5,752.9,189.3z M765.2,283.7c0,1.2-1,2.2-2.2,2.2c-1.2,0-2.2-1-2.2-2.2c0-1,0.7-1.8,1.5-2.1l0,0.4
			c0,0.4,0.3,0.7,0.7,0.7c0.4,0,0.7-0.3,0.7-0.7v-0.4C764.6,281.9,765.2,282.7,765.2,283.7z M766.2,266.3c0,0,0,3,0,3
			c0,1.5-1.1,2.8-2.5,3.1l0-0.8c0-0.4-0.3-0.7-0.7-0.7c-0.4,0-0.7,0.3-0.7,0.7l0,0.8c-1.4-0.3-2.5-1.6-2.5-3.1c0,0,0-3,0-3
			c0-1.5,1.1-2.8,2.5-3.1l0,0.5c0,0.4,0.3,0.7,0.7,0.7c0.4,0,0.7-0.3,0.7-0.7v-0.5C765.1,263.5,766.2,264.8,766.2,266.3z
			 M766.2,248.1c0,0,0,3,0,3c0,1.5-1.1,2.8-2.5,3.1l0-0.9c0-0.4-0.3-0.7-0.7-0.7c-0.4,0-0.7,0.3-0.7,0.7l0,0.9
			c-1.4-0.3-2.5-1.6-2.5-3.1c0,0,0-3,0-3c0-1.5,1.1-2.8,2.5-3.1l0,0.5c0,0.4,0.3,0.7,0.7,0.7c0.4,0,0.7-0.3,0.7-0.7V245
			C765.1,245.3,766.2,246.6,766.2,248.1z M766.2,229.5c0,0,0,3,0,3c0,1.5-1.1,2.8-2.5,3.1l0-0.5c0-0.4-0.3-0.7-0.7-0.7
			c-0.4,0-0.7,0.3-0.7,0.7l0,0.5c-1.4-0.3-2.5-1.6-2.5-3.1c0,0,0-3,0-3c0-1.5,1.1-2.8,2.5-3.1l0,0.5c0,0.4,0.3,0.7,0.7,0.7
			c0.4,0,0.7-0.3,0.7-0.7v-0.5C765.1,226.7,766.2,228,766.2,229.5z M766.2,211.4c0,0,0,3,0,3c0,1.5-1.1,2.8-2.5,3.1l0-1.1
			c0-0.4-0.3-0.7-0.7-0.7c-0.4,0-0.7,0.3-0.7,0.7l0,1.1c-1.4-0.3-2.5-1.6-2.5-3.1c0,0,0-3,0-3c0-1.5,1.1-2.8,2.5-3.1l0,0.5
			c0,0.4,0.3,0.7,0.7,0.7c0.4,0,0.7-0.3,0.7-0.7v-0.5C765.1,208.6,766.2,209.9,766.2,211.4z"/>
		<path opacity="0.4" fill="#FFFFFF" d="M674.6,133.6l52.8,76.8l-2.5,9.5l-59.1-83.1C665.9,136.8,673.9,133.4,674.6,133.6z"/>
		<polygon opacity="0.4" fill="#FFFFFF" points="677.1,132.9 720.9,194.2 721.7,190.3 680.7,131.9 		"/>
		<polygon opacity="0.4" fill="#FFFFFF" points="686.6,245.4 680.6,244.6 660,213.9 662.6,213.9 		"/>
	</g>
</g>
<g>
	<path fill="#351618" stroke="#231F20" stroke-width="5" stroke-miterlimit="10" d="M567.6,347.1c0,0-66.4-7.9-121,39
		c-54.6,47-75.9,58.6-83.7,51c-0.7-2.5,8.2-38-8.7-79.5c-5.8-7.8-80.5-3.1-82.7,7.9c-2.2,11.1-18.2,117.4,50.7,129.8
		c68.8,12.4,111.2-31.5,142.6-70.9c29.1-41.8,58.8-58.7,107.5-63.8c0,0,13.4,5.1,11-10.7C579.4,339.4,567.6,347.1,567.6,347.1z"/>
	<path stroke="#000000" stroke-width="0.5158" d="M468.9,418.9c27.9-37.7,57-53.3,103.5-58.2c0,0,13.4,5.1,11-10.7
		c-4-10.5-15.8-2.8-15.8-2.8s-66.4-7.9-121,39c-1,0.8-1.9,1.6-2.8,2.4L468.9,418.9z"/>
	<path fill="#501C19" d="M449.5,383.6c-1,0.8-2.1,1.7-3.1,2.6c-1,0.8-1.9,1.6-2.8,2.4l25.3,30.5c2-2.7,4.1-5.4,6.1-7.9L449.5,383.6z
		"/>
	
		<ellipse transform="matrix(0.9966 -8.290884e-02 8.290884e-02 0.9966 -28.8801 27.2255)" fill="#6D4134" cx="313.4" cy="361.3" rx="40.5" ry="7.5"/>
	
		<ellipse transform="matrix(0.9966 -8.289859e-02 8.289859e-02 0.9966 -28.874 27.2001)" fill="#100E0D" cx="313.1" cy="361.3" rx="28.4" ry="3.4"/>
	<path fill="#703E30" d="M274,370c0,0-13.8,95.3,27.6,113.6c41.4,18.3,30.3-115.3,30.3-115.3S317.2,373.6,274,370z"/>
	<path opacity="0.38" fill="#BA7364" d="M281.4,372.5c0,0-2.8,90.8,19.5,91c11.2-8.2-3.4-9.6-4.7-43.6c-1.3-34.1-1.8-46.9-1.8-46.9
		L281.4,372.5z"/>
	<path fill="#703E30" d="M367.4,441.9c0,0-12.7,15,0.6,19.1c13.3,4.1,42.7,2.7,81.3-43.5c4.8-4.5,9.1-9,9.1-9L443.9,390
		C443.9,390,395.1,439.1,367.4,441.9z"/>
	<path fill="#1E1E1E" d="M454.3,385.5c0,0,22-22,77.4-28.2c31.3-3.1,45.6,0.9,45.6,0.9s-85.3-5.3-114.4,36.9
		C460,391.3,454.3,385.5,454.3,385.5z"/>
</g>
<path fill="#8B421F" d="M377.5,196.5c0,0-111.3-21.3-90.8-90c0,0-23.6,32.9,5,65.2c15.9,18,82.6,35.2,82.6,35.2L377.5,196.5z"/>
<path fill="#D17A28" d="M449.7,533.1c0,0-45.2,35.4-46.7,111.4C403.1,644.5,395.5,576,449.7,533.1z"/>
<path opacity="0.84" fill="#E57225" d="M913.5,508.4c0,0-136,94-200,118s-130,62-84,50s202-80,202-80l98-46L913.5,508.4z"/>
<path fill="#F07F21" d="M595.5,582.4c0,0-26,50-26,130L595.5,582.4z"/>
<path opacity="0.62" fill="#E57225" d="M339,510.3c0,0,3.7,1-1.3,20.1c-5.4,20.6-6,20.6-6,20.6s23.7,7.3,37.7,23.3s38,18,30,8
	s-36-40-36-40l14-6c0,0,8-12-12-14S339,510.3,339,510.3z"/>
<path opacity="0.23" fill="#F07F21" d="M482.6,533.3c0,0,27.9,9.5,46.3,13.6c18.4,4.2,42.7-1.8,51-0.6c8.3,1.2,26.1,3.6,13.6,14.2
	c-12.5,10.7-31.4,12.5-34.4,30.2c-3,17.8-28.5,18.4-28.5,12.5c0-5.9-39.7-24.9-43.3-26.1c-3.6-1.2-40.9,7.2-40.9-5.9
	s6.5-21.4,16-26.7C471.9,539.2,480.2,530.9,482.6,533.3z"/>
<path fill="#F6921E" stroke="#97271F" stroke-width="7" stroke-miterlimit="10" d="M570.4,716.7c0,0,6.8-103.4,22.9-134.4"/>
<path fill="#F6921E" stroke="#97271F" stroke-width="7" stroke-miterlimit="10" d="M403.3,657.4c0,0-1.9-88,52.1-126"/>
</svg>
